<svg xmlns="http://www.w3.org/2000/svg" viewBox="0 0 240 270" fill="none">
  <defs>
    <linearGradient id="b" x1="20" y1="0" x2="220" y2="270">
      <stop offset="0%" stop-color="#5BB8F5"/>
      <stop offset="100%" stop-color="#1A78D2"/>
    </linearGradient>
    <linearGradient id="o" x1="120" y1="50" x2="185" y2="230">
      <stop offset="0%" stop-color="#FFB74D"/>
      <stop offset="100%" stop-color="#F57C00"/>
    </linearGradient>
  </defs>
  <!-- Dark background -->
  <rect width="240" height="270" rx="40" fill="#1e293b"/>
  <!-- Hexagon -->
  <polygon points="120,24 210,74 210,174 120,224 30,174 30,74" fill="url(#b)"/>
  <!-- Inner white C -->
  <polygon points="120,60 180,94 180,154 120,188 60,154 60,94" fill="white"/>
  <!-- C left -->
  <polygon points="60,94 60,154 80,164 80,84" fill="url(#b)"/>
  <!-- C top -->
  <polygon points="60,94 120,60 180,94 180,104 120,72 80,94 80,84" fill="url(#b)"/>
  <!-- C bottom -->
  <polygon points="60,154 120,188 180,154 180,144 120,176 80,154 80,164" fill="url(#b)"/>
  <!-- F vertical -->
  <rect x="115" y="80" width="24" height="100" rx="2" fill="url(#o)"/>
  <!-- F top -->
  <rect x="115" y="80" width="58" height="22" rx="2" fill="url(#o)"/>
  <!-- F middle -->
  <rect x="115" y="120" width="42" height="18" rx="2" fill="url(#o)"/>
  <!-- Blue triangle -->
  <polygon points="139,180 165,164 139,164" fill="#1A78D2"/>
</svg>
